<?xml version="1.0" standalone="no"?>
<!DOCTYPE svg PUBLIC "-//W3C//DTD SVG 20010904//EN"
 "http://www.w3.org/TR/2001/REC-SVG-20010904/DTD/svg10.dtd">
<svg version="1.0" xmlns="http://www.w3.org/2000/svg"
 width="260.000000pt" height="260.000000pt" viewBox="0 0 260.000000 260.000000"
 preserveAspectRatio="xMidYMid meet">
<metadata>
Created by potrace 1.11, written by Peter Selinger 2001-2013
</metadata>
<g transform="translate(0.000000,260.000000) scale(0.100000,-0.100000)"
fill="#000000" stroke="none">
<path d="M232 2256 c-96 -33 -154 -134 -132 -231 11 -49 48 -101 88 -122 37
-20 39 -26 15 -51 -58 -60 -130 -185 -170 -297 -27 -77 -28 -88 -28 -260 0
-146 3 -191 18 -239 25 -81 68 -169 121 -247 l44 -66 -33 -32 c-97 -91 -70
-258 52 -316 93 -45 208 -4 262 92 8 15 11 15 32 1 36 -23 195 -84 264 -102
97 -24 162 -31 295 -31 204 0 364 36 527 118 l50 26 24 -37 c61 -93 195 -113
282 -41 50 42 70 83 70 149 1 61 -18 105 -60 144 l-27 25 42 60 c24 33 56 89
73 126 17 36 32 65 33 65 1 0 25 -9 55 -20 83 -30 197 -23 277 18 77 39 146
114 174 190 18 47 21 72 18 147 -5 103 -27 161 -87 223 -115 122 -265 149
-433 78 -13 -6 -23 4 -44 46 -34 67 -78 133 -118 177 -22 24 -27 35 -18 38 24
9 82 65 97 92 37 72 20 173 -39 230 -45 44 -115 63 -181 49 -61 -13 -130 -79
-141 -133 -4 -21 -11 -34 -18 -31 -6 2 -47 21 -92 40 -298 132 -665 126 -969
-15 -35 -16 -65 -29 -68 -29 -3 0 -8 16 -11 35 -18 94 -147 164 -244 131z
m1038 -320 c30 -7 78 -22 105 -31 161 -56 315 -178 395 -315 220 -374 -6 -814
-484 -942 -117 -31 -335 -31 -456 1 -235 63 -414 199 -507 386 -37 75 -50 119
-59 217 -15 151 55 335 175 457 68 69 182 151 231 166 14 4 30 11 35 15 11 8
98 37 136 46 84 18 128 22 244 18 72 -2 155 -10 185 -18z"/>
<path d="M676 1298 c0 -369 3 -522 11 -521 13 3 87 36 233 105 58 28 134 64
170 80 36 17 115 54 175 83 61 28 157 74 215 101 58 27 152 71 209 99 l104 51
-64 29 c-35 15 -120 55 -189 88 -69 33 -152 72 -185 87 -33 15 -112 52 -175
82 -63 31 -137 65 -165 78 -27 12 -115 53 -194 91 -79 38 -144 69 -145 69 0 0
-1 -235 0 -522z"/>
</g>
</svg>
